# xmcd
#
# Track frame offsets:
# 150
# 10527
# 20362
# 31668
# 40968
# 51085
# 61956
# 72447
# 84014
# 95647
#
# Disc length: 1464 seconds
#
# Revision: 0
# Processed by: cddbd v1.4PL0 Copyright (c) Steve Scherf et al.
# Submitted via: Axialis_AX_CDPlayer 2.6
#
DISCID=6e05b60a
DTITLE=Dolly Parton - Bubbling Over
DYEAR=1900
DGENRE=
TTITLE0=Bubbling Over
TTITLE1=Travelin' Man
TTITLE2=Alabama Sundown
TTITLE3=Afraid To Live And Afraid
TTITLE4=Love With Me
TTITLE5=My Kind Of Man
TTITLE6=Sometimes An Old Memory
TTITLE7=Pleasant As May
TTITLE8=The Beginning
TTITLE9=Love, You're So Beatiful
EXTD=
EXTT0=
EXTT1=
EXTT2=
EXTT3=
EXTT4=
EXTT5=
EXTT6=
EXTT7=
EXTT8=
EXTT9=
PLAYORDER=
